<svg width="119" height="83" viewBox="0 0 119 83" xmlns="http://www.w3.org/2000/svg">
  <g fill="none" fill-rule="evenodd">
    <path fill="#FFF" fill-rule="nonzero" d="M11.284 81.035L.636 20.103 52.106.033l55.549 1.248 10.647 60.953-51.818 20.114z"/>
    <path fill="#C8202E" fill-rule="nonzero" d="M114.57 60.111l-48.675 18.91-51.819-1.247-9.709-55.57L52.695 3.36l52.167 1.204z"/>
    <g opacity=".5" style="mix-blend-mode:multiply" fill="#000" fill-rule="nonzero">
      <path d="M53.175 6.096L9.429 23.146l.066.503L53.436 7.672l46.888-.022-.088-.482zM65.153 74.71l-46.67-.044.088.503 46.778 1.116h.087L109.4 59.214l-.11-.503z"/>
    </g>
    <path d="M64.782 35.16a.874.874 0 0 0 .567-.546c.393-.92 2.182-5.56 2.182-5.8 0-.241 0-1.182-.83-1.029l-7.221 1.27-2.378-13.395a1.866 1.866 0 0 0 0-.372c-.24-1.423-1.026-1.423-1.615-1.16l-.392.153c-1.113.7-4.495 3.24-4.997 3.677a2.606 2.606 0 0 0-1.265 2.189 1.778 1.778 0 0 0 0 .35l1.745 10.22-5.76.92a.894.894 0 0 0-.742 1.05l.895 5.078a.917.917 0 0 0 1.047.744l5.804-1.028s.654 4.377 1.985 11.074a26.684 26.684 0 0 0 11.39 17.137 1.677 1.677 0 0 0 2.007-.46l3.12-5.23a1.404 1.404 0 0 0-.393-1.73c-3.491-2.385-6.546-6.215-7.79-13.656l-1.526-8.755 4.167-.7z" stroke="#C8202E" stroke-width=".85" stroke-linecap="round" stroke-linejoin="round"/>
    <path d="M64.782 35.16a.874.874 0 0 0 .567-.546c.393-.92 2.182-5.56 2.182-5.8 0-.241 0-1.182-.83-1.029l-7.221 1.27-2.378-13.395a1.866 1.866 0 0 0 0-.372c-.24-1.423-1.026-1.423-1.615-1.16l-.392.153c-1.113.7-4.495 3.24-4.997 3.677a2.606 2.606 0 0 0-1.265 2.189 1.778 1.778 0 0 0 0 .35l1.745 10.22-5.76.92a.894.894 0 0 0-.742 1.05l.895 5.078a.917.917 0 0 0 1.047.744l5.804-1.028s.654 4.377 1.985 11.074a26.684 26.684 0 0 0 11.39 17.137 1.677 1.677 0 0 0 2.007-.46l3.12-5.23a1.404 1.404 0 0 0-.393-1.73c-3.491-2.385-6.546-6.215-7.79-13.656l-1.526-8.755 4.167-.7z" fill="#FFF" fill-rule="nonzero"/>
    <path d="M94.084 24.655l-3.95 2.999a11.817 11.817 0 0 0-9.25-1.642c-7.697 1.595-12.697 9.085-11.237 16.831 2.837 13.92 18.59 15.145 23.39 7.485l.327 1.817a.898.898 0 0 0 1.047.722l5.236-.92 1.004-.174a.92.92 0 0 0 .72-1.051l-4.407-25.498c-.197-1.247-1.375-1.663-2.88-.569zm-9.011 22.587a6.53 6.53 0 0 1-4.998-1.271 6.57 6.57 0 0 1-2.53-4.507 6.737 6.737 0 0 1 .843-5.15 6.698 6.698 0 0 1 4.263-2.992c3.837-.621 7.46 1.961 8.138 5.8a7.043 7.043 0 0 1-1.18 5.249 7.001 7.001 0 0 1-4.536 2.871z" stroke="#C8202E" stroke-width=".85" stroke-linecap="round" stroke-linejoin="round"/>
    <path d="M94.084 24.655l-3.95 2.999a11.817 11.817 0 0 0-9.25-1.642c-7.697 1.595-12.697 9.085-11.237 16.831 2.837 13.92 18.59 15.145 23.39 7.485l.327 1.817a.898.898 0 0 0 1.047.722l5.236-.92 1.004-.174a.92.92 0 0 0 .72-1.051l-4.407-25.498c-.197-1.225-1.375-1.641-2.88-.547m-9.011 22.565a6.53 6.53 0 0 1-4.998-1.271 6.57 6.57 0 0 1-2.53-4.507 6.737 6.737 0 0 1 .843-5.15 6.698 6.698 0 0 1 4.263-2.992c3.837-.621 7.46 1.961 8.138 5.8a7.043 7.043 0 0 1-1.18 5.249 7.001 7.001 0 0 1-4.536 2.871" fill="#FFF" fill-rule="nonzero"/>
    <path d="M49.182 56.719l-15.273 2.714-1.81-10.134 10.036-1.772a.92.92 0 0 0 .72-1.05l-.96-5.429a.898.898 0 0 0-1.048-.744l-10.014 1.773-1.898-10.79 12.501-2.189a.92.92 0 0 0 .72-1.05L41 21.482a.898.898 0 0 0-1.047-.744L19.465 24.37a.919.919 0 0 0-.741 1.05l7.483 42.526a.895.895 0 0 0 1.026.722l23.323-4.05a.872.872 0 0 0 .72-1.028l-1.069-6.106a.898.898 0 0 0-1.025-.766z" stroke="#C8202E" stroke-width=".85" stroke-linecap="round" stroke-linejoin="round"/>
    <path d="M49.182 56.719l-15.273 2.714-1.81-10.134 10.036-1.772a.92.92 0 0 0 .72-1.05l-.96-5.429a.898.898 0 0 0-1.048-.744l-10.014 1.773-1.898-10.79 12.501-2.189a.92.92 0 0 0 .72-1.05L41 21.482a.898.898 0 0 0-1.047-.744L19.465 24.37a.919.919 0 0 0-.741 1.05l7.483 42.526a.895.895 0 0 0 1.026.722l23.323-4.05a.872.872 0 0 0 .72-1.028l-1.069-6.106a.895.895 0 0 0-1.025-.722" fill="#FFF" fill-rule="nonzero"/>
    <path d="M63.8 37.35a1.29 1.29 0 0 0 .96-1.226l-3.098.569.196 1.05 1.026-.175.916-.219zM64.738 66.502a27.45 27.45 0 0 1-11.825-17.75 318.77 318.77 0 0 1-1.855-10.199l-4.887.854c-.485.109-.992.014-1.405-.263a1.817 1.817 0 0 1-.777-1.204l-.894-5.1c-.011-.094-.011-.19 0-.284a3.005 3.005 0 0 0-.677 2.408l.546 3.151a2.89 2.89 0 0 0 1.181 1.948c.644.46 1.447.634 2.222.482l3.818-.679c.328 1.926.895 5.1 1.702 9.193A28.465 28.465 0 0 0 62.47 66.26c.603.527 1.384.8 2.182.766l.72-.197a2.177 2.177 0 0 1-.72-.24M49.53 29.864l-1.592-9.301a3.93 3.93 0 0 1 0-.504 3.817 3.817 0 0 0-.654 2.189 3.644 3.644 0 0 0 0 .7l1.2 7.048 1.047-.132zM100.87 52.67l-.96.175-5.26.941a1.833 1.833 0 0 1-2.072-1.313 12.074 12.074 0 0 1-6.414 3.24c-1.69.295-3.417.295-5.106 0-6.337-1.219-11.227-6.3-12.218-12.695A14.416 14.416 0 0 1 71 31.79c.47-.697.996-1.356 1.57-1.97a12.847 12.847 0 0 0-4.777 13.439c1.05 6.84 6.305 12.26 13.09 13.504 1.811.328 3.666.328 5.477 0a13.289 13.289 0 0 0 6.022-2.67 2.874 2.874 0 0 0 2.465.722l3.317-.57h.152l.895-.152a2.837 2.837 0 0 0 2.029-1.467h-.262M41.85 29.974h-.26L30.003 32.03l.174 1.05 9.644-1.707c.324-.06.634-.179.916-.35.31-.208.595-.45.851-.722l.262-.394M42.636 48.424h-.24l-9.12 1.598.175 1.05 7.004-1.182a2.814 2.814 0 0 0 2.181-1.466" opacity=".5" fill="#000" fill-rule="nonzero"/>
    <path d="M50.71 65.495l-23.346 4.137a1.828 1.828 0 0 1-1.406-.28 1.839 1.839 0 0 1-.776-1.208l-7.375-42.526c.011-.087.011-.175 0-.262a2.94 2.94 0 0 0-.676 2.407l7.134 40.556a2.89 2.89 0 0 0 1.186 1.864c.626.44 1.4.611 2.153.478l21.338-3.852a2.902 2.902 0 0 0 2.029-1.467h-.262M87.145 35.16A5.637 5.637 0 0 0 83 34.199h-.153a5.13 5.13 0 0 0-3.97 3.151 4.844 4.844 0 0 1 3.447-2.363h.152a5.332 5.332 0 0 1 3.906.897l.153.11a5.16 5.16 0 0 1 1.767 1.991c.33.577.56 1.206.676 1.86a5.639 5.639 0 0 1-.938 4.268 5.872 5.872 0 0 1-2.53 2.036 6 6 0 0 0 3.337-2.386 5.946 5.946 0 0 0 1.004-4.508 6.414 6.414 0 0 0-2.727-4.137" opacity=".5" fill="#000" fill-rule="nonzero"/>
    <path d="M83.196 15.704a.457.457 0 0 1-.61-.416v-.306a.46.46 0 0 1 .37-.7l3.71-.68a.457.457 0 0 1 .61.417v.306c0 .35 0 .525-.414.591l-1.135.219.917 4.99a.439.439 0 0 1-.371.722h-.415a.457.457 0 0 1-.61-.416l-.917-4.99-1.135.263zM92.12 17.06l.524-4.136a.503.503 0 0 1 .436-.437l.938-.176a.457.457 0 0 1 .59.416l1.068 5.8a.46.46 0 0 1-.414.613h-.415c-.349 0-.545 0-.589-.416l-.633-3.677-.392 3.108c0 .285-.175.46-.546.525h-.48a.566.566 0 0 1-.698-.021l-1.462-2.78.72 3.655a.46.46 0 0 1-.414.613h-.415a.457.457 0 0 1-.61-.416l-1.07-5.8c0-.35 0-.547.415-.59l.938-.176a.458.458 0 0 1 .545.24l1.964 3.656z" fill="#FFF" fill-rule="nonzero"/>
  </g>
</svg>
